<svg width="35" height="35" viewBox="0 0 35 35" fill="none" xmlns="http://www.w3.org/2000/svg">
<ellipse cx="17.1619" cy="17.8073" rx="15.9744" ry="15.9744" fill="white"/>
<path d="M17.1619 34.311C26.2767 34.311 33.6656 26.922 33.6656 17.8073C33.6656 8.69256 26.2767 1.3036 17.1619 1.3036C8.04721 1.3036 0.658249 8.69256 0.658249 17.8073C0.658249 26.922 8.04721 34.311 17.1619 34.311Z" stroke="#C9C9C9" stroke-opacity="0.3" stroke-width="1.05856"/>
<path fill-rule="evenodd" clip-rule="evenodd" d="M10.0624 26.9779V10.4118C10.0624 9.84237 10.2653 9.35505 10.6712 8.94987C11.0771 8.54469 11.5644 8.34175 12.1331 8.34106H22.4869C23.0564 8.34106 23.5441 8.544 23.9499 8.94987C24.3558 9.35574 24.5584 9.84306 24.5577 10.4118V26.9779L17.31 23.8718L10.0624 26.9779ZM12.1331 23.82L17.31 21.5939L22.4869 23.82V11.4704C22.4869 10.8858 22.013 10.4118 21.4284 10.4118H13.1917C12.6071 10.4118 12.1331 10.8858 12.1331 11.4704V23.82ZM18.3682 12.4595V13.5181V14.8261H19.6762L20.7347 14.8261V16.9432H19.6762H18.3682V18.2513L18.3682 19.3098H16.2511V18.2513V16.9432H14.943L13.8845 16.9432V14.8261H14.943H16.2511V13.5181L16.2511 12.4595L18.3682 12.4595Z" fill="#212121"/>
</svg>
