<svg width="128" height="133" viewBox="0 0 128 133" fill="none" xmlns="http://www.w3.org/2000/svg">
<path d="M57.4271 44.9956C56.41 40.2797 50.2988 38.5831 44.9103 37.0866C43.032 36.5645 41.2575 36.0686 39.7729 35.4639C33.679 32.9885 26.7715 30.1825 22.8935 23.4482C20.3659 19.0586 20.3703 13.3684 22.8979 8.95708C25.1787 4.98519 29.0307 2.77085 33.5882 3.01882C41.9456 3.43646 48.6758 10.6755 54.1551 25.1448C55.6699 29.1471 57.0938 33.2234 58.3836 37.2562C58.6086 37.9566 58.9549 38.7267 59.3098 39.5228C60.0369 41.1542 60.7856 42.8465 60.9112 44.4779L57.4227 44.9912L57.4271 44.9956ZM32.9519 6.55567C28.9528 6.55567 26.858 9.17459 25.9621 10.7364C24.0491 14.0644 24.0448 18.3582 25.9535 21.6689C29.2255 27.3504 35.2631 29.7997 41.1017 32.175C42.3957 32.7014 44.075 33.1669 45.8539 33.6628C48.6671 34.4416 51.8006 35.316 54.4927 36.7081C53.363 33.2713 52.1425 29.8171 50.8571 26.4108C45.9318 13.3988 40.2274 6.90805 33.415 6.56437L32.9563 6.55132L32.9519 6.55567Z" fill="#232323" stroke="#212121" stroke-width="5"/>
<path d="M61.8204 44.9953L58.332 44.482C58.4575 42.8462 59.2106 41.1539 59.9377 39.5182C60.2883 38.7264 60.6346 37.9608 60.8596 37.2603C62.1667 33.1884 63.5906 29.1121 65.0881 25.1489C70.5674 10.6796 77.2976 3.44056 85.655 3.02292C90.1908 2.788 94.0688 4.98929 96.3497 8.96988C98.8772 13.3812 98.8772 19.0627 96.3497 23.4523C92.4631 30.1953 85.5598 32.997 79.4702 35.468C77.9857 36.0727 76.2112 36.5643 74.3329 37.0863C68.9444 38.5872 62.8332 40.2839 61.8118 44.9997L61.8204 44.9953ZM86.2913 6.55543L85.8325 6.56848C79.0245 6.90781 73.3201 13.4029 68.3948 26.4149C67.118 29.7864 65.8975 33.245 64.7592 36.7079C67.4512 35.3157 70.5848 34.4413 73.398 33.6626C75.1768 33.1667 76.8561 32.7012 78.1502 32.1748C83.9844 29.8038 90.0177 27.3546 93.2941 21.6686C95.2027 18.3623 95.2027 14.0685 93.2897 10.7405C92.3981 9.17435 90.2947 6.55543 86.2913 6.55543Z" fill="#232323" stroke="#212121" stroke-width="5"/>
<g filter="url(#filter0_d_4039_19591)">
<path d="M94.5801 74.79C94.5801 74.79 94.5801 74.79 94.5801 74.79C94.5801 54.4715 78.1086 38 57.79 38C57.79 38 57.79 38 57.79 38V38C57.79 38 57.79 38 57.79 38C37.4715 38 21 54.4715 21 74.79C21 74.79 21 74.79 21 74.79V100.474C21 104.361 21 106.305 21.7566 107.79C22.4221 109.096 23.484 110.158 24.7901 110.823C26.275 111.58 28.2188 111.58 32.1064 111.58H57.79C57.79 111.58 57.79 111.58 57.79 111.58C78.1086 111.58 94.5801 95.1086 94.5801 74.79C94.5801 74.79 94.5801 74.79 94.5801 74.79V74.79Z" fill="#212121"/>
</g>
<path d="M47.706 69.0959L45.9447 69.0834C45.8441 68.576 45.665 68.1296 45.4073 67.7443C45.1544 67.3589 44.8442 67.0347 44.4768 66.7717C44.1141 66.5039 43.7107 66.3022 43.2666 66.1664C42.8224 66.0307 42.3589 65.9611 41.876 65.9576C40.9953 65.9513 40.1959 66.1682 39.4778 66.6081C38.7644 67.0481 38.1939 67.6998 37.7663 68.5633C37.3435 69.4268 37.1276 70.4882 37.1186 71.7477C37.1096 73.0071 37.3103 74.0715 37.7208 74.941C38.136 75.8104 38.6971 76.4702 39.4041 76.9204C40.1159 77.3705 40.9121 77.5988 41.7928 77.6051C42.2757 77.6085 42.7402 77.5455 43.1862 77.4161C43.6322 77.2868 44.0385 77.0932 44.4049 76.8353C44.7761 76.5728 45.0909 76.2507 45.3493 75.8691C45.6125 75.4827 45.798 75.0389 45.9057 74.5378L47.667 74.5503C47.5291 75.2928 47.2829 75.9563 46.9284 76.5409C46.5738 77.1255 46.1346 77.6219 45.6109 78.0301C45.0871 78.4335 44.5002 78.7395 43.85 78.9479C43.2046 79.1564 42.5149 79.258 41.781 79.2527C40.5405 79.2439 39.4395 78.933 38.4779 78.32C37.5164 77.7071 36.7626 76.84 36.2166 75.7186C35.6706 74.5972 35.4031 73.2695 35.4141 71.7355C35.425 70.2014 35.7115 68.8777 36.2734 67.7643C36.8354 66.6508 37.6015 65.7945 38.5717 65.1954C39.5419 64.5962 40.6472 64.3011 41.8877 64.3099C42.6216 64.3152 43.3098 64.4266 43.9522 64.6443C44.5993 64.862 45.1818 65.1787 45.6997 65.5943C46.2176 66.0052 46.6496 66.5055 46.9958 67.0951C47.342 67.68 47.5787 68.3469 47.706 69.0959ZM51.9764 72.564L51.9296 79.1264L50.2535 79.1144L50.3573 64.5693L52.0334 64.5813L51.9953 69.922L52.1373 69.9231C52.397 69.3615 52.7837 68.9168 53.2975 68.589C53.8159 68.2565 54.5037 68.0933 55.3607 68.0994C56.104 68.1048 56.754 68.2585 57.3105 68.5608C57.8671 68.8584 58.2971 69.3136 58.6005 69.9266C58.9087 70.5349 59.0594 71.3078 59.0527 72.2452L59.0032 79.1769L57.3271 79.1649L57.3758 72.3469C57.382 71.4804 57.1619 70.8089 56.7155 70.3322C56.2738 69.8508 55.6577 69.6073 54.867 69.6016C54.3177 69.5977 53.8245 69.7102 53.3872 69.9391C52.9547 70.168 52.6114 70.5041 52.3573 70.9474C52.1079 71.3907 51.981 71.9296 51.9764 72.564ZM65.2779 79.4774C64.5866 79.4724 63.9602 79.3378 63.3986 79.0733C62.8371 78.8042 62.3924 78.4198 62.0645 77.9203C61.7366 77.416 61.5753 76.8088 61.5803 76.0986C61.5848 75.4736 61.7115 74.9679 61.9605 74.5814C62.2095 74.1902 62.5408 73.8848 62.9543 73.6652C63.3678 73.4456 63.8235 73.2831 64.3214 73.1778C64.8241 73.0677 65.329 72.9814 65.8361 72.9187C66.4996 72.8382 67.0374 72.7781 67.4496 72.7385C67.8666 72.6941 68.1702 72.6181 68.3604 72.5106C68.5553 72.4031 68.6537 72.2144 68.6556 71.9445L68.656 71.8877C68.661 71.1869 68.4732 70.6411 68.0924 70.2501C67.7164 69.8591 67.1425 69.6609 66.3708 69.6554C65.5706 69.6497 64.942 69.8204 64.485 70.1675C64.0279 70.5146 63.7057 70.8864 63.5182 71.2828L61.9314 70.7033C62.2202 70.0424 62.6026 69.529 63.0788 69.1631C63.5596 68.7925 64.0823 68.5358 64.6468 68.393C65.216 68.2456 65.7753 68.1738 66.3245 68.1777C66.6749 68.1802 67.077 68.2257 67.531 68.3142C67.9897 68.398 68.4311 68.5692 68.8554 68.8279C69.2845 69.0867 69.6392 69.4751 69.9196 69.9932C70.2 70.5114 70.3371 71.2036 70.3309 72.0701L70.2796 79.2574L68.6035 79.2454L68.614 77.7682L68.5288 77.7676C68.4135 78.0035 68.2223 78.2555 67.9552 78.5235C67.6881 78.7914 67.3338 79.0186 66.8921 79.2048C66.4504 79.3911 65.9123 79.4819 65.2779 79.4774ZM65.5443 77.9736C66.2072 77.9783 66.7668 77.8521 67.2232 77.5949C67.6843 77.3378 68.0324 77.0041 68.2673 76.5938C68.507 76.1836 68.6284 75.7512 68.6317 75.2967L68.6426 73.7626C68.571 73.8473 68.4142 73.9243 68.1722 73.9936C67.935 74.0582 67.66 74.1155 67.3471 74.1653C67.039 74.2105 66.7381 74.2509 66.4442 74.2867C66.1552 74.3178 65.9206 74.3445 65.7405 74.3669C65.3045 74.4206 64.8967 74.51 64.517 74.6352C64.1421 74.7556 63.8377 74.9405 63.6039 75.1897C63.3749 75.4343 63.2589 75.7697 63.2558 76.1958C63.2517 76.7782 63.4639 77.22 63.8927 77.5214C64.3262 77.8181 64.8767 77.9688 65.5443 77.9736ZM78.1609 68.4043L78.1508 69.8247L72.4975 69.7844L72.5076 68.364L78.1609 68.4043ZM74.174 65.7622L75.8501 65.7741L75.7758 76.1716C75.7725 76.6451 75.8386 77.0007 75.9742 77.2384C76.1146 77.4714 76.2934 77.6289 76.5106 77.711C76.7326 77.7883 76.9667 77.8279 77.2129 77.8296C77.3975 77.8309 77.5491 77.8225 77.6676 77.8045C77.7862 77.7816 77.881 77.7634 77.9521 77.7497L78.2823 79.2577C78.1683 79.2995 78.0094 79.341 77.8055 79.3822C77.6016 79.4281 77.3434 79.4499 77.0309 79.4477C76.5574 79.4443 76.0941 79.3392 75.6411 79.1323C75.1927 78.9255 74.8209 78.6127 74.5256 78.194C74.235 77.7752 74.092 77.2486 74.0965 76.6141L74.174 65.7622Z" fill="#FEFCFA"/>
<defs>
<filter id="filter0_d_4039_19591" x="0.175451" y="17.1755" width="115.229" height="115.229" filterUnits="userSpaceOnUse" color-interpolation-filters="sRGB">
<feFlood flood-opacity="0" result="BackgroundImageFix"/>
<feColorMatrix in="SourceAlpha" type="matrix" values="0 0 0 0 0 0 0 0 0 0 0 0 0 0 0 0 0 0 127 0" result="hardAlpha"/>
<feOffset/>
<feGaussianBlur stdDeviation="10.4123"/>
<feComposite in2="hardAlpha" operator="out"/>
<feColorMatrix type="matrix" values="0 0 0 0 0 0 0 0 0 0 0 0 0 0 0 0 0 0 0.25 0"/>
<feBlend mode="normal" in2="BackgroundImageFix" result="effect1_dropShadow_4039_19591"/>
<feBlend mode="normal" in="SourceGraphic" in2="effect1_dropShadow_4039_19591" result="shape"/>
</filter>
</defs>
</svg>
