<svg width="101" height="97" viewBox="0 0 101 97" fill="none" xmlns="http://www.w3.org/2000/svg">
<path d="M48.3693 31.234C47.6052 28.0635 43.0135 26.9229 38.9649 25.9167C37.5536 25.5658 36.2204 25.2323 35.105 24.8258C30.5263 23.1616 25.3364 21.2751 22.4227 16.7475C20.5236 13.7964 20.5269 9.97074 22.4259 7.005C24.1397 4.33466 27.0338 2.84594 30.4581 3.01265C36.7374 3.29343 41.7941 8.16029 45.9109 17.8882C47.0491 20.579 48.119 23.3195 49.088 26.0308C49.2571 26.5017 49.5173 27.0194 49.7839 27.5546C50.3302 28.6514 50.8928 29.7892 50.9871 30.886L48.3661 31.2311L48.3693 31.234ZM29.98 5.39051C26.9753 5.39051 25.4014 7.15124 24.7283 8.20124C23.2909 10.4387 23.2877 13.3255 24.7218 15.5513C27.1802 19.371 31.7165 21.0177 36.1033 22.6146C37.0756 22.9685 38.3373 23.2815 39.6739 23.6149C41.7876 24.1385 44.1419 24.7263 46.1646 25.6623C45.3158 23.3517 44.3988 21.0294 43.433 18.7393C39.7324 9.99122 35.4464 5.62742 30.328 5.39636L29.9833 5.38759L29.98 5.39051Z" fill="#232323" stroke="#212121" stroke-width="5"/>
<path d="M51.6698 31.2338L49.0488 30.8887C49.1431 29.789 49.709 28.6512 50.2553 27.5515C50.5187 27.0192 50.7788 26.5044 50.9479 26.0335C51.93 23.2959 52.9999 20.5554 54.125 17.8909C58.2419 8.16302 63.2985 3.29616 69.5779 3.01538C72.9858 2.85744 75.8995 4.33739 77.6132 7.01358C79.5123 9.97932 79.5123 13.7991 77.6132 16.7502C74.6931 21.2837 69.5063 23.1672 64.931 24.8285C63.8156 25.2351 62.4823 25.5656 61.071 25.9165C57.0224 26.9256 52.4308 28.0663 51.6633 31.2367L51.6698 31.2338ZM70.0559 5.39031L69.7112 5.39909C64.596 5.62722 60.31 9.99394 56.6094 18.742C55.6501 21.0087 54.7331 23.3339 53.8779 25.6621C55.9005 24.7261 58.2549 24.1383 60.3686 23.6147C61.7051 23.2813 62.9668 22.9683 63.9391 22.6144C68.3227 21.0204 72.8558 19.3738 75.3174 15.5511C76.7515 13.3282 76.7515 10.4414 75.3142 8.20397C74.6443 7.15104 73.0639 5.39031 70.0559 5.39031Z" fill="#232323" stroke="#212121" stroke-width="5"/>
<g filter="url(#filter0_d_4039_19591)">
<path d="M76.2832 51.2655C76.2832 37.6052 65.2093 26.5312 51.5489 26.5312H48.6411C33.3748 26.5312 20.9991 38.907 20.9991 54.1733V68.1477C20.9991 68.9934 20.9991 69.4163 21.0359 69.7723C21.3739 73.0411 23.9578 75.625 27.2266 75.963C27.5827 75.9998 28.0055 75.9998 28.8512 75.9998H51.5489C65.2093 75.9998 76.2832 64.9259 76.2832 51.2655V51.2655Z" fill="#212121"/>
</g>
<path d="M42.0506 50.5354L40.6416 50.5264C40.5615 50.1206 40.4185 49.7636 40.2126 49.4555C40.0105 49.1474 39.7626 48.8882 39.4688 48.678C39.1788 48.464 38.8562 48.3028 38.501 48.1945C38.1458 48.0862 37.775 48.0308 37.3887 48.0283C36.6841 48.0238 36.0445 48.1977 35.4697 48.5501C34.8987 48.9026 34.4418 49.4243 34.0992 50.1153C33.7603 50.8063 33.5869 51.6556 33.5788 52.6631C33.5708 53.6707 33.7307 54.5221 34.0585 55.2174C34.39 55.9127 34.8385 56.4402 35.4038 56.7999C35.9729 57.1596 36.6098 57.3417 37.3143 57.3462C37.7007 57.3487 38.0723 57.298 38.4292 57.1942C38.7861 57.0904 39.1112 56.9353 39.4045 56.7289C39.7017 56.5186 39.9537 56.2608 40.1607 55.9553C40.3715 55.646 40.5202 55.2909 40.6067 54.8899L42.0158 54.8989C41.905 55.4929 41.7076 56.0239 41.4235 56.4918C41.1395 56.9596 40.7878 57.357 40.3685 57.6839C39.9493 58.007 39.4795 58.2521 38.9592 58.4192C38.4427 58.5864 37.8909 58.6681 37.3038 58.6643C36.3114 58.658 35.4308 58.4099 34.6619 57.9202C33.8931 57.4304 33.2906 56.7371 32.8546 55.8404C32.4186 54.9436 32.2054 53.8817 32.2152 52.6544C32.225 51.4272 32.4551 50.368 32.9054 49.477C33.3557 48.5859 33.9691 47.9004 34.7457 47.4205C35.5223 46.9406 36.4068 46.7038 37.3992 46.7102C37.9863 46.7139 38.5367 46.8027 39.0505 46.9764C39.5681 47.1502 40.0339 47.4032 40.4479 47.7353C40.862 48.0638 41.2073 48.4637 41.4838 48.9352C41.7604 49.4029 41.9493 49.9363 42.0506 50.5354ZM45.4647 53.3073L45.4228 58.5571L44.0819 58.5486L44.1748 46.9126L45.5157 46.9211L45.4816 51.1937L45.5952 51.1944C45.8033 50.745 46.113 50.389 46.5242 50.1265C46.9392 49.8602 47.4895 49.7292 48.1751 49.7336C48.7698 49.7374 49.2897 49.8601 49.7347 50.1016C50.1798 50.3393 50.5235 50.7032 50.7658 51.1934C51.0119 51.6798 51.132 52.298 51.126 53.048L51.0818 58.5933L49.7409 58.5847L49.7844 53.1303C49.7899 52.4372 49.6143 51.9001 49.2575 51.519C48.9045 51.1342 48.4117 50.9397 47.7791 50.9357C47.3398 50.9329 46.9451 51.0231 46.5951 51.2065C46.249 51.3899 45.9741 51.659 45.7705 52.0138C45.5707 52.3686 45.4687 52.7997 45.4647 53.3073ZM56.1013 58.8299C55.5483 58.8264 55.0473 58.719 54.5982 58.5078C54.1491 58.2928 53.7936 57.9856 53.5316 57.5862C53.2697 57.183 53.141 56.6973 53.1455 56.1292C53.1495 55.6292 53.2512 55.2245 53.4507 54.9152C53.6502 54.602 53.9154 54.3575 54.2463 54.1816C54.5773 54.0057 54.942 53.8754 55.3404 53.7909C55.7426 53.7025 56.1466 53.6331 56.5523 53.5827C57.0832 53.5179 57.5135 53.4695 57.8433 53.4375C58.1769 53.4018 58.4198 53.3408 58.572 53.2547C58.728 53.1686 58.8069 53.0175 58.8086 52.8016L58.809 52.7562C58.8135 52.1956 58.6635 51.759 58.3592 51.4465C58.0586 51.1339 57.5997 50.9757 56.9823 50.9718C56.3421 50.9677 55.8391 51.1046 55.4733 51.3826C55.1074 51.6605 54.8493 51.9581 54.6991 52.2754L53.43 51.8127C53.6615 51.2839 53.9678 50.8729 54.3489 50.5799C54.7339 50.2831 55.1522 50.0775 55.6039 49.9629C56.0594 49.8446 56.5069 49.7869 56.9462 49.7897C57.2265 49.7915 57.5482 49.8276 57.9113 49.8981C58.2782 49.9649 58.6313 50.1016 58.9706 50.3083C59.3136 50.5151 59.5971 50.8256 59.8211 51.2399C60.0451 51.6542 60.1543 52.208 60.1488 52.9011L60.1029 58.6509L58.762 58.6424L58.7714 57.4606L58.7033 57.4601C58.6108 57.649 58.4577 57.8506 58.2439 58.0652C58.03 58.2797 57.7464 58.4616 57.3929 58.6109C57.0394 58.7601 56.6089 58.8332 56.1013 58.8299ZM56.3155 57.6267C56.8458 57.6301 57.2936 57.5288 57.6589 57.3228C58.0279 57.1168 58.3066 56.8496 58.4948 56.5213C58.6869 56.193 58.7843 55.847 58.7872 55.4834L58.797 54.2561C58.7396 54.324 58.6142 54.3857 58.4205 54.4412C58.2307 54.4931 58.0106 54.539 57.7603 54.5791C57.5138 54.6154 57.273 54.6479 57.0379 54.6767C56.8066 54.7018 56.619 54.7233 56.4749 54.7413C56.126 54.7845 55.7997 54.8563 55.4959 54.9566C55.1958 55.0532 54.9522 55.2013 54.765 55.4009C54.5816 55.5967 54.4886 55.865 54.4859 56.2059C54.4821 56.6718 54.6517 57.0252 54.9945 57.266C55.3411 57.5031 55.7814 57.6233 56.3155 57.6267ZM66.4153 49.9638L66.4062 51.1002L61.8836 51.0713L61.8927 49.9349L66.4153 49.9638ZM63.2275 47.8525L64.5684 47.8611L64.502 56.179C64.499 56.5578 64.5516 56.8422 64.66 57.0323C64.7721 57.2186 64.9151 57.3445 65.0888 57.41C65.2663 57.4718 65.4536 57.5033 65.6506 57.5045C65.7983 57.5055 65.9195 57.4987 66.0144 57.4841C66.1092 57.4658 66.1851 57.4511 66.242 57.4401L66.5051 58.6464C66.4139 58.6799 66.2868 58.7132 66.1236 58.7462C65.9604 58.7831 65.7538 58.8007 65.5039 58.7991C65.1251 58.7967 64.7545 58.7129 64.3922 58.5477C64.0336 58.3825 63.7364 58.1325 63.5004 57.7976C63.2682 57.4628 63.1542 57.0416 63.1582 56.5341L63.2275 47.8525Z" fill="#FEFCFA"/>
<defs>
<filter id="filter0_d_4039_19591" x="0.175451" y="5.7067" width="96.9323" height="91.1178" filterUnits="userSpaceOnUse" color-interpolation-filters="sRGB">
<feFlood flood-opacity="0" result="BackgroundImageFix"/>
<feColorMatrix in="SourceAlpha" type="matrix" values="0 0 0 0 0 0 0 0 0 0 0 0 0 0 0 0 0 0 127 0" result="hardAlpha"/>
<feOffset/>
<feGaussianBlur stdDeviation="10.4123"/>
<feComposite in2="hardAlpha" operator="out"/>
<feColorMatrix type="matrix" values="0 0 0 0 0 0 0 0 0 0 0 0 0 0 0 0 0 0 0.25 0"/>
<feBlend mode="normal" in2="BackgroundImageFix" result="effect1_dropShadow_4039_19591"/>
<feBlend mode="normal" in="SourceGraphic" in2="effect1_dropShadow_4039_19591" result="shape"/>
</filter>
</defs>
</svg>
