<svg width="117" height="31" viewBox="0 0 117 31" fill="none" xmlns="http://www.w3.org/2000/svg">
<rect x="0.768555" y="0.62793" width="116.209" height="29.4419" rx="7.44187" fill="#EDEDED"/>
<path d="M9.63763 21.3487V8.35926H17.6926V10.0464H11.5975V14.0041H17.1154V15.6848H11.5975V21.3487H9.63763ZM19.8284 21.3487V11.6066H21.6614V13.1542H21.7629C21.9405 12.6299 22.2534 12.2176 22.7016 11.9174C23.154 11.613 23.6657 11.4607 24.2365 11.4607C24.3549 11.4607 24.4944 11.465 24.6551 11.4734C24.82 11.4819 24.949 11.4924 25.042 11.5051V13.3191C24.9659 13.2979 24.8306 13.2747 24.6361 13.2493C24.4416 13.2197 24.2471 13.2049 24.0525 13.2049C23.6043 13.2049 23.2048 13.3001 22.8538 13.4903C22.5071 13.6764 22.2323 13.9364 22.0293 14.2705C21.8263 14.6003 21.7249 14.9766 21.7249 15.3994V21.3487H19.8284ZM26.6831 21.3487V11.6066H28.5795V21.3487H26.6831ZM27.6408 10.1034C27.311 10.1034 27.0277 9.99351 26.7909 9.77363C26.5584 9.54953 26.4421 9.28315 26.4421 8.97448C26.4421 8.66158 26.5584 8.3952 26.7909 8.17532C27.0277 7.95122 27.311 7.83917 27.6408 7.83917C27.9706 7.83917 28.2518 7.95122 28.4844 8.17532C28.7212 8.3952 28.8395 8.66158 28.8395 8.97448C28.8395 9.28315 28.7212 9.54953 28.4844 9.77363C28.2518 9.99351 27.9706 10.1034 27.6408 10.1034ZM35.3295 21.5453C34.3697 21.5453 33.543 21.3402 32.8496 20.9301C32.1604 20.5157 31.6276 19.9343 31.2513 19.1859C30.8792 18.4333 30.6931 17.5517 30.6931 16.5411C30.6931 15.5432 30.8792 14.6637 31.2513 13.9026C31.6276 13.1415 32.1519 12.5474 32.8242 12.1204C33.5008 11.6933 34.2915 11.4798 35.1963 11.4798C35.746 11.4798 36.2788 11.5707 36.7946 11.7525C37.3105 11.9343 37.7735 12.2197 38.1836 12.6087C38.5938 12.9977 38.9173 13.503 39.154 14.1246C39.3908 14.7419 39.5092 15.4925 39.5092 16.3762V17.0485H31.765V15.6278H37.6509C37.6509 15.1288 37.5494 14.687 37.3464 14.3022C37.1435 13.9132 36.8581 13.6066 36.4902 13.3825C36.1266 13.1584 35.6995 13.0464 35.209 13.0464C34.6762 13.0464 34.2111 13.1774 33.8137 13.4396C33.4204 13.6975 33.116 14.0358 32.9003 14.4544C32.6889 14.8688 32.5832 15.3191 32.5832 15.8053V16.9153C32.5832 17.5665 32.6974 18.1204 32.9257 18.577C33.1583 19.0337 33.4817 19.3825 33.8961 19.6235C34.3105 19.8603 34.7946 19.9787 35.3485 19.9787C35.7079 19.9787 36.0356 19.928 36.3316 19.8265C36.6276 19.7208 36.8834 19.5643 37.0991 19.3571C37.3147 19.15 37.4796 18.8941 37.5938 18.5897L39.3887 18.9132C39.2449 19.4417 38.987 19.9047 38.6149 20.3022C38.2471 20.6954 37.7841 21.002 37.2259 21.2218C36.672 21.4375 36.0399 21.5453 35.3295 21.5453ZM43.5098 15.5643V21.3487H41.6133V11.6066H43.4336V13.1922H43.5541C43.7782 12.6764 44.1292 12.262 44.607 11.9491C45.089 11.6362 45.6958 11.4798 46.4273 11.4798C47.0911 11.4798 47.6725 11.6193 48.1715 11.8984C48.6704 12.1732 49.0573 12.5834 49.3322 13.1288C49.607 13.6743 49.7444 14.3487 49.7444 15.1521V21.3487H47.848V15.3804C47.848 14.6743 47.6641 14.1225 47.2962 13.725C46.9284 13.3233 46.4231 13.1225 45.7804 13.1225C45.3406 13.1225 44.9495 13.2176 44.607 13.4079C44.2687 13.5982 44.0002 13.8772 43.8015 14.2451C43.607 14.6087 43.5098 15.0485 43.5098 15.5643ZM55.9347 21.539C55.1482 21.539 54.4463 21.3381 53.829 20.9364C53.2159 20.5305 52.7339 19.9533 52.3829 19.2049C52.0362 18.4523 51.8628 17.5495 51.8628 16.4967C51.8628 15.4438 52.0383 14.5432 52.3892 13.7948C52.7444 13.0464 53.2307 12.4734 53.848 12.076C54.4654 11.6785 55.1651 11.4798 55.9474 11.4798C56.552 11.4798 57.0383 11.5812 57.4062 11.7842C57.7783 11.9829 58.0658 12.2155 58.2687 12.4819C58.4759 12.7483 58.6366 12.9829 58.7508 13.1859H58.8649V8.35926H60.7613V21.3487H58.9093V19.8328H58.7508C58.6366 20.04 58.4717 20.2768 58.2561 20.5432C58.0446 20.8096 57.7529 21.0421 57.3808 21.2409C57.0087 21.4396 56.5267 21.539 55.9347 21.539ZM56.3533 19.9216C56.8988 19.9216 57.3597 19.7779 57.736 19.4903C58.1165 19.1986 58.4041 18.7948 58.5986 18.2789C58.7973 17.7631 58.8967 17.1626 58.8967 16.4777C58.8967 15.8011 58.7994 15.2092 58.6049 14.7018C58.4104 14.1944 58.125 13.799 57.7487 13.5157C57.3723 13.2324 56.9072 13.0908 56.3533 13.0908C55.7825 13.0908 55.3068 13.2388 54.9262 13.5347C54.5457 13.8307 54.2582 14.2345 54.0637 14.7462C53.8734 15.2578 53.7783 15.8349 53.7783 16.4777C53.7783 17.1288 53.8755 17.7144 54.07 18.2345C54.2645 18.7546 54.552 19.1669 54.9326 19.4713C55.3174 19.7715 55.7909 19.9216 56.3533 19.9216ZM73.0658 21.3487L75.1969 8.35926H76.7191L74.588 21.3487H73.0658ZM67.1863 17.873L67.4337 16.3508H77.2772L77.0299 17.873H67.1863ZM68.4992 21.3487L70.6303 8.35926H72.1525L70.0214 21.3487H68.4992ZM67.9411 13.3571L68.1884 11.8349H78.032L77.7846 13.3571H67.9411ZM84.4696 8.35926V21.3487H82.5034V10.3254H82.4273L79.3195 12.355V10.4776L82.5605 8.35926H84.4696Z" fill="#212121"/>
<path d="M103.954 11.6285L105.814 13.489M102.714 20.3107H107.675M97.7524 17.8301L97.1323 20.3107L99.6129 19.6905L106.798 12.5054C107.031 12.2728 107.161 11.9574 107.161 11.6285C107.161 11.2996 107.031 10.9842 106.798 10.7516L106.691 10.6449C106.459 10.4124 106.143 10.2818 105.814 10.2818C105.486 10.2818 105.17 10.4124 104.938 10.6449L97.7524 17.8301Z" stroke="black" stroke-width="0.729865" stroke-linecap="round" stroke-linejoin="round"/>
</svg>
