<svg width="302" height="63" viewBox="0 0 302 63" fill="none" xmlns="http://www.w3.org/2000/svg">
<g clip-path="url(#clip0_2063_15363)">
<path d="M40.5255 26.3301L34.2304 31.3514L32.9817 32.3545L24.9761 38.738L16.8792 32.3146L15.6191 31.3115L9.34113 26.3301H1.10742V61.3596H9.37535V36.9826L14.1536 40.5448L15.6476 41.6562L22.9918 47.1278H26.9661L34.1449 41.7759L35.6331 40.6702L40.5825 36.9826V61.3596H48.8447V26.3301H40.5255Z" fill="#212121"/>
</g>
<path d="M59.2246 26.207H67.4601V61.3641H59.2246V26.207Z" fill="#212121"/>
<path d="M97.0963 54.3357V61.3641H78.9668V26.207H87.1008V54.3357H97.0963Z" fill="#212121"/>
<path d="M124.624 54.3357V61.3641H106.494V26.207H114.628V54.3357H124.624Z" fill="#212121"/>
<path d="M142.159 32.7353V40.7189H155.468V47.0967H142.159V54.8321H155.468V61.3603H134.021V26.207H155.468V32.7353H142.159Z" fill="#212121"/>
<path d="M179.578 26.207C191.228 26.207 197.858 34.7961 197.858 43.7874C197.858 52.7788 191.281 61.3641 179.578 61.3641H166.672V26.207H179.578ZM174.806 33.2392V54.3319H179.176C185.756 54.3319 189.573 49.2101 189.573 43.7837C189.573 38.3573 185.756 33.2392 179.176 33.2392H174.806Z" fill="#212121"/>
<path d="M205.855 43.7876C205.855 34.1457 212.786 25.3047 224.489 25.3047C236.192 25.3047 243.07 34.1457 243.07 43.7876C243.07 53.4296 236.139 62.2706 224.489 62.2706C212.839 62.2706 205.855 53.4296 205.855 43.7876ZM234.785 43.7876C234.785 38.0115 230.867 32.6415 224.489 32.6415C218.111 32.6415 214.193 38.0152 214.193 43.7876C214.193 49.56 218.058 54.9376 224.489 54.9376C230.919 54.9376 234.785 49.5638 234.785 43.7876Z" fill="#212121"/>
<path d="M274.018 49.1086V26.207H282.107V61.3641H273.616L260.958 38.7672V61.3641H252.824V26.207H261.312L274.018 49.1086Z" fill="#212121"/>
<path d="M293.609 26.207H301.845V61.3641H293.609V26.207Z" fill="#212121"/>
<path d="M25.1238 26.4941L24.8669 27.0452L24.6082 26.4941L14.8438 31.0878V61.7487H16.3273V32.0371L24.8669 28.0181L33.4046 32.0371V61.7487H34.8882V31.0878L25.1238 26.4941Z" fill="#999999"/>
<path d="M48.0608 10.4388C46.9319 6.99443 43.7513 4.58666 40.3246 4.58666C40.102 4.58666 39.8795 4.60303 39.657 4.62303C38.6601 2.45713 36.6754 0.891355 34.2166 0.485817C30.9437 -0.0561136 27.6944 1.4933 25.9304 4.42845C25.867 4.53211 25.8254 4.64486 25.7675 4.74852C25.4437 4.24114 25.0854 3.74649 24.6639 3.28458C23.1785 1.65151 21.3494 0.82225 19.361 0.807701C17.2442 0.820431 15.1799 1.84246 13.5444 3.68284C13.1083 4.17203 12.7212 4.76852 12.4046 5.40501C10.4633 4.47391 8.41521 4.32115 6.4341 5.03039C3.58276 6.0506 1.36826 8.75844 0.921384 11.7718C0.501643 14.6269 1.71564 17.3457 4.2576 19.2333C6.95154 21.2301 10.4596 22.1121 13.8501 22.965C17.5609 23.8979 21.3964 24.8618 23.9692 27.2877L23.9764 27.2823C24.0451 27.3441 24.1483 27.4041 24.2369 27.4641L25.7024 27.6696C28.2968 25.22 31.89 24.1962 35.693 23.1141C38.9749 22.1794 42.3708 21.2119 45.0412 19.2315C48.012 17.0274 49.1409 13.7395 48.059 10.437L48.0608 10.4388ZM27.0503 5.11041C28.5375 2.63717 31.264 1.33326 34.0068 1.78245C35.9028 2.09524 37.4443 3.25912 38.3055 4.87582C36.9069 5.25953 35.5482 6.0306 34.2999 7.17447C32.0799 9.21308 29.7026 11.8227 27.8463 14.8815C28.0254 12.3228 27.8735 9.03122 26.5346 6.13062C26.6902 5.78327 26.8549 5.44139 27.0521 5.11041H27.0503ZM39.0129 7.14901C39.4055 10.8716 37.1259 14.476 35.1484 16.8437C33.7734 18.4895 32.0745 20.0917 29.9559 21.7393C28.5718 22.8195 27.7106 23.7415 26.8784 24.6326C26.6269 24.9036 26.3628 25.18 26.0896 25.4637C26.0299 25.32 25.9629 25.1764 25.8833 25.04C25.9503 23.5269 26.2126 22.0666 26.636 20.6718C26.8006 20.2208 26.9598 19.7643 27.1027 19.3024C28.8577 14.7306 32.1758 10.9007 35.1791 8.14194C36.3189 7.09627 37.5528 6.40704 38.8084 6.09789C38.9043 6.43614 38.9749 6.78712 39.0129 7.14901ZM12.8496 8.47656C12.8731 8.10557 12.9582 7.70731 13.0722 7.30541C13.4286 7.55455 13.7796 7.83097 14.1215 8.14376C17.2406 11.008 19.6234 14.0232 21.2083 17.1093C22.0966 18.8387 22.7208 20.59 23.079 22.3194C23.07 22.3121 23.0591 22.3049 23.0501 22.2976C22.5453 21.923 22.0676 21.5702 21.713 21.2356C21.0436 20.6027 20.3217 19.9717 19.5854 19.3279C16.1243 16.3055 12.5475 13.1812 12.8478 8.47474L12.8496 8.47656ZM26.171 17.7003C26.0914 18.124 25.972 18.5514 25.8381 18.9805C25.6915 19.3734 25.5558 19.768 25.4292 20.1681C25.4274 20.1753 25.4256 20.1808 25.422 20.1863C25.4256 19.7516 25.4346 19.317 25.4346 18.8842C25.4346 18.0131 25.4093 17.1129 25.3822 16.1982C25.2989 13.4285 25.2284 10.597 25.8725 8.0492C27.0394 11.699 26.5383 15.749 26.1692 17.6985L26.171 17.7003ZM14.5214 4.55939C15.9072 2.99906 17.6296 2.13343 19.3701 2.12252H19.4027C20.9948 2.12252 22.4802 2.83176 23.7032 4.17385C24.2695 4.79398 24.7218 5.47776 25.0981 6.19427C23.8895 9.34765 23.98 12.972 24.0777 16.2382C24.103 17.1402 24.1302 18.0276 24.1284 18.8842C24.1284 19.5861 24.1175 20.2899 24.1067 20.9901C23.7104 19.4934 23.1315 17.9913 22.3698 16.5073C20.7125 13.2812 18.2357 10.1424 15.0026 7.17447C14.534 6.74529 14.0491 6.38704 13.5588 6.06151C13.8302 5.50504 14.1487 4.97765 14.5214 4.55939ZM14.1704 21.6938C10.9011 20.8718 7.52145 20.0226 5.03557 18.1786C2.8663 16.5691 1.8658 14.3614 2.2186 11.9664C2.59311 9.42221 4.46566 7.13264 6.87375 6.27247C7.56487 6.02514 8.26866 5.9033 8.97245 5.9033C9.95848 5.9033 10.9463 6.15062 11.9088 6.61981C11.7116 7.21994 11.5814 7.82552 11.5452 8.39291C11.2014 13.7486 15.2016 17.2402 18.7296 20.3208C19.4515 20.95 20.1607 21.5702 20.8193 22.1921C21.23 22.5813 21.7366 22.9577 22.2739 23.3542C22.6376 23.6233 23.0048 23.9052 23.3576 24.1962C23.3884 24.5253 23.421 24.8545 23.4336 25.1836C20.774 23.3542 17.4252 22.5122 14.1686 21.6957L14.1704 21.6938ZM44.2687 18.1786C41.7882 20.0171 38.5099 20.95 35.3383 21.8539C33.4133 22.4031 31.4594 22.9668 29.6266 23.7343C29.9649 23.4269 30.3268 23.1123 30.7574 22.7777C32.9502 21.0719 34.7142 19.4061 36.1471 17.6894C38.291 15.1252 40.7534 11.1935 40.3119 7.01262C40.2739 6.63618 40.1997 6.27065 40.1075 5.91421C40.1798 5.91239 40.254 5.90148 40.3264 5.90148C43.1976 5.90148 45.8662 7.93645 46.8215 10.8498C47.7316 13.6267 46.8016 16.2982 44.2687 18.1767V18.1786Z" fill="#999999"/>
<defs>
<clipPath id="clip0_2063_15363">
<rect width="48.0053" height="60.9797" fill="white" transform="translate(0.839844 0.378906)"/>
</clipPath>
</defs>
</svg>
